<svg width="119" height="59" viewBox="0 0 119 59" fill="none" xmlns="http://www.w3.org/2000/svg">
<path d="M65.1138 14.9346C65.1614 14.7019 65.3662 14.5348 65.6037 14.5348H111.05C111.366 14.5348 111.603 14.8249 111.54 15.1349L105.71 43.6469C105.662 43.8796 105.458 44.0468 105.22 44.0468H59.774C59.4576 44.0468 59.2208 43.7566 59.2842 43.4466L65.1138 14.9346Z" stroke="white" stroke-width="3" stroke-linecap="round" stroke-linejoin="round"/>
<circle cx="68.2073" cy="54.742" r="4.20727" fill="white"/>
<circle cx="95.2073" cy="54.742" r="4.20727" fill="white"/>
<path d="M58.3237 2H67.6043L58.7272 46.5468" stroke="white" stroke-width="3" stroke-linecap="round" stroke-linejoin="round"/>
<path d="M50 27.5348H15" stroke="#8CC012" stroke-width="3" stroke-linecap="round" stroke-linejoin="round"/>
<path d="M53 14.5348H27" stroke="#8CC012" stroke-width="3" stroke-linecap="round" stroke-linejoin="round"/>
<path d="M46 40.5348H2" stroke="#8CC012" stroke-width="3" stroke-linecap="round" stroke-linejoin="round"/>
<path d="M95.6061 24.3067L76.1168 21.2804C75.9586 21.2562 75.7969 21.2776 75.6505 21.342C75.504 21.4064 75.3789 21.5112 75.2899 21.644C75.2008 21.7769 75.1513 21.9324 75.1474 22.0923C75.1434 22.2522 75.185 22.41 75.2674 22.5471L85.4667 39.4281C85.5559 39.5765 85.6887 39.6937 85.847 39.7639C86.0053 39.8341 86.1814 39.8539 86.3513 39.8204C86.5168 39.7879 86.6689 39.7065 86.7876 39.5866C86.9064 39.4667 86.9864 39.3139 87.0173 39.1481L88.6264 30.5867L95.9358 25.8475C96.0809 25.7571 96.195 25.6247 96.2631 25.4679C96.3311 25.311 96.3499 25.1372 96.3168 24.9695C96.2837 24.8017 96.2004 24.648 96.0779 24.5288C95.9554 24.4095 95.7995 24.3304 95.6309 24.3018L95.6061 24.3067Z" fill="#8CC012"/>
</svg>
